<svg width="20" height="22" viewBox="0 0 20 22" fill="none" xmlns="http://www.w3.org/2000/svg">
<path d="M4.5 2C3.75 2 3.14583 2.41667 2.6875 3.25C2.22917 4.08333 2 5 2 6C2 7.05 2.14583 7.97917 2.4375 8.7875C2.72917 9.59583 3 10.2 3.25 10.6L6 10.05C6.21667 9.51667 6.4375 8.90833 6.6625 8.225C6.8875 7.54167 7 6.8 7 6C7 5 6.77083 4.08333 6.3125 3.25C5.85417 2.41667 5.25 2 4.5 2ZM5.875 15C6.19167 15 6.45833 14.8833 6.675 14.65C6.89167 14.4167 7 14.0917 7 13.675C7 13.3917 6.93333 13.1 6.8 12.8C6.66667 12.5 6.53333 12.2333 6.4 12L4 12.5C4 13.1667 4.14583 13.75 4.4375 14.25C4.72917 14.75 5.20833 15 5.875 15ZM15.5 7C14.75 7 14.1458 7.41667 13.6875 8.25C13.2292 9.08333 13 10 13 11C13 11.8 13.1125 12.5375 13.3375 13.2125C13.5625 13.8875 13.7833 14.5 14 15.05L16.75 15.6C17 15.2 17.2708 14.6 17.5625 13.8C17.8542 13 18 12.0667 18 11C18 10 17.7708 9.08333 17.3125 8.25C16.8542 7.41667 16.25 7 15.5 7ZM14.125 20C14.7917 20 15.2708 19.75 15.5625 19.25C15.8542 18.75 16 18.1667 16 17.5L13.6 17C13.4667 17.2333 13.3333 17.5 13.2 17.8C13.0667 18.1 13 18.3917 13 18.675C13 19.0083 13.1042 19.3125 13.3125 19.5875C13.5208 19.8625 13.7917 20 14.125 20ZM5.875 17C4.59167 17 3.61667 16.525 2.95 15.575C2.28333 14.625 1.96667 13.5583 2 12.375L1.55 11.7C1.36667 11.4167 1.0625 10.775 0.6375 9.775C0.2125 8.775 0 7.51667 0 6C0 4.28333 0.425 2.85417 1.275 1.7125C2.125 0.570833 3.2 0 4.5 0C5.91667 0 7.02083 0.629167 7.8125 1.8875C8.60417 3.14583 9 4.51667 9 6C9 6.96667 8.86667 7.85833 8.6 8.675C8.33333 9.49167 8.1 10.15 7.9 10.65L8.1 10.975C8.23333 11.2083 8.41667 11.5792 8.65 12.0875C8.88333 12.5958 9 13.125 9 13.675C9 14.625 8.70417 15.4167 8.1125 16.05C7.52083 16.6833 6.775 17 5.875 17ZM14.125 22C13.225 22 12.4792 21.6833 11.8875 21.05C11.2958 20.4167 11 19.625 11 18.675C11 18.125 11.1167 17.5958 11.35 17.0875C11.5833 16.5792 11.7667 16.2083 11.9 15.975L12.1 15.65C11.9 15.15 11.6667 14.4917 11.4 13.675C11.1333 12.8583 11 11.9667 11 11C11 9.51667 11.3958 8.14583 12.1875 6.8875C12.9792 5.62917 14.0833 5 15.5 5C16.8 5 17.875 5.57083 18.725 6.7125C19.575 7.85417 20 9.28333 20 11C20 12.5167 19.7875 13.7708 19.3625 14.7625C18.9375 15.7542 18.6333 16.3917 18.45 16.675L18 17.375C18.0167 18.5583 17.6958 19.625 17.0375 20.575C16.3792 21.525 15.4083 22 14.125 22Z" fill="#5F6368"/>
</svg>
